#N canvas 269 23 547 401 10;
#X obj 135 321 dac~;
#X obj 133 98 s soundfont;
#X obj 58 234 r soundfont;
#X msg 133 71 set piano_1;
#X obj 133 46 loadbang;
#X text 33 51 comment;
#X obj 117 294 autosampler~;
#X obj 129 201 loadbang;
#X obj 69 70 s note;
#X obj 36 265 r note;
#X msg 60 33 60 88;
#X obj 269 156 r adsr;
#X msg 269 209 adsr \$1 \$2 \$3 \$4;
#X msg 127 252 adsr 9 400 0 3;
#X connect 2 0 6 0;
#X connect 3 0 1 0;
#X connect 4 0 3 0;
#X connect 6 0 0 0;
#X connect 6 1 0 1;
#X connect 7 0 13 0;
#X connect 9 0 6 0;
#X connect 10 0 8 0;
#X connect 11 0 12 0;
#X connect 12 0 6 0;
#X connect 13 0 6 0;
