#N canvas 424 23 434 372 10;
#X obj 74 31 inlet~;
#X obj 74 66 *~ 0.12532;
#X obj 74 98 rpole~ 0.87467;
#X obj 74 127 *~ 0.01668;
#X obj 74 154 cpole~ 0.9293 0.10812;
#X obj 73 188 cpole~ 0.9293 -0.10812;
#X obj 73 215 *~ 0.125;
#X obj 75 240 rzero~ -1;
#X obj 76 265 rzero~ -1;
#X obj 76 291 rzero~ -1;
#X obj 76 319 outlet~;
#X obj 229 331 block~ 1024 1 16;
#X connect 0 0 1 0;
#X connect 1 0 2 0;
#X connect 2 0 3 0;
#X connect 3 0 4 0;
#X connect 4 0 5 0;
#X connect 4 1 5 1;
#X connect 5 0 6 0;
#X connect 6 0 7 0;
#X connect 7 0 8 0;
#X connect 8 0 9 0;
#X connect 9 0 10 0;
