#N canvas 475 23 385 201 10;
#X obj 148 137 dac~;
#X obj 128 105 autosampler~;
#X obj -91 26 loadbang;
#X msg -91 64 adsr 9 400 0 3;
#X obj 175 63 r set_adsr;
#X obj 79 63 r set_sound;
#X obj 5 62 r note;
#X connect 1 0 0 0;
#X connect 1 1 0 1;
#X connect 2 0 3 0;
#X connect 3 0 1 0;
#X connect 4 0 1 0;
#X connect 5 0 1 0;
#X connect 6 0 1 0;
