#N canvas 308 234 561 484 10;
#X obj 47 364 soundfonts;
#X obj 62 425 dac~;
#X msg 20 157 piano_1.sf2;
#X obj 29 199 symbol;
#X msg 38 302 set \$1;
#X obj -51 325 r note;
#X obj 31 25 loadbang;
#X obj 282 116 s note;
#X msg 281 82 60 127;
#X obj 282 15 metro 1000;
#X obj 284 50 bng 15 250 50 0 empty empty empty 17 7 0 10 -262144 -1
-1;
#X obj 284 -11 loadbang;
#X obj 24 242 makefilename /Users/Thomas/Pd-for-LibPd/soundfonts/%s
;
#X connect 0 0 1 0;
#X connect 0 1 1 1;
#X connect 2 0 3 0;
#X connect 3 0 12 0;
#X connect 4 0 0 0;
#X connect 5 0 0 0;
#X connect 6 0 2 0;
#X connect 8 0 7 0;
#X connect 9 0 10 0;
#X connect 10 0 8 0;
#X connect 11 0 9 0;
#X connect 12 0 4 0;
